<svg width="65" height="76" viewBox="0 0 65 76" fill="none" xmlns="http://www.w3.org/2000/svg">
<path d="M56.7845 29.8165C56.768 29.7821 56.7515 29.7477 56.732 29.7148C56.7107 29.678 56.6872 29.6425 56.6614 29.6087C54.2099 25.439 50.7256 21.9663 46.5423 19.5228C46.5087 19.4978 46.4736 19.4749 46.4373 19.454C46.4058 19.4361 46.3728 19.4197 46.3398 19.4047C42.0888 16.9762 37.2743 15.6985 32.3745 15.6985C27.4747 15.6985 22.6602 16.9762 18.4092 19.4047C18.3762 19.4197 18.3432 19.4361 18.3117 19.454C18.2754 19.4749 18.2403 19.4978 18.2067 19.5228C14.0233 21.9669 10.5391 25.4401 8.08752 29.6101C8.06146 29.6433 8.0379 29.6782 8.01702 29.7148C7.99794 29.7471 7.98091 29.7806 7.96602 29.815C5.52474 34.0489 4.24289 38.8479 4.24895 43.7312C4.24283 48.6127 5.52361 53.4101 7.96302 57.643C7.97952 57.6789 7.99752 57.7133 8.01702 57.7476C8.03678 57.7812 8.05831 57.8136 8.08152 57.8448C10.5334 62.0163 14.018 65.491 18.2022 67.9366C18.2373 67.9626 18.2739 67.9866 18.3117 68.0084C18.3387 68.0234 18.3657 68.0353 18.3927 68.0488C22.6421 70.4862 27.4597 71.7675 32.3625 71.7641H32.3865C37.2888 71.7674 42.1059 70.4862 46.3548 68.0488C46.3833 68.0353 46.4103 68.0234 46.4373 68.0084C46.4754 67.9866 46.512 67.9621 46.5468 67.9351C50.7307 65.4904 54.215 62.0161 56.6659 57.8448C56.6897 57.8136 56.7117 57.7812 56.732 57.7476C56.7515 57.7133 56.7694 57.6789 56.7859 57.643C59.2254 53.4101 60.5061 48.6127 60.5 43.7312C60.5059 38.8486 59.2246 34.0502 56.7845 29.8165V29.8165ZM54.8749 44.8525H58.2245C58.0652 48.6174 57.0752 52.301 55.3249 55.6411L52.4224 53.9725C52.1638 53.8239 51.8565 53.7836 51.5682 53.8607C51.2798 53.9378 51.034 54.126 50.8848 54.3837C50.7357 54.6414 50.6953 54.9477 50.7727 55.2351C50.85 55.5225 51.0388 55.7675 51.2973 55.9162L54.1924 57.5817C52.1577 60.7571 49.4547 63.4536 46.2708 65.4847L44.5997 62.5992C44.5258 62.4716 44.4275 62.3597 44.3102 62.27C44.193 62.1802 44.0592 62.1144 43.9164 62.0762C43.7736 62.038 43.6247 62.0283 43.4781 62.0475C43.3316 62.0666 43.1902 62.1144 43.0622 62.188C42.9341 62.2617 42.8219 62.3597 42.7319 62.4766C42.6419 62.5934 42.5758 62.7268 42.5375 62.8691C42.4992 63.0114 42.4894 63.1598 42.5086 63.3059C42.5279 63.452 42.5758 63.5929 42.6497 63.7205L44.3222 66.609C40.9716 68.3552 37.2757 69.3431 33.498 69.502V66.1575C33.498 65.8601 33.3795 65.5749 33.1685 65.3646C32.9575 65.1543 32.6714 65.0362 32.373 65.0362C32.0746 65.0362 31.7885 65.1543 31.5775 65.3646C31.3665 65.5749 31.248 65.8601 31.248 66.1575V69.4945C27.4703 69.3356 23.7744 68.3478 20.4238 66.6015L22.0978 63.713C22.247 63.4553 22.2873 63.149 22.21 62.8616C22.1326 62.5742 21.9439 62.3293 21.6853 62.1806C21.4267 62.0319 21.1194 61.9916 20.8311 62.0688C20.5427 62.1459 20.2969 62.334 20.1478 62.5917L18.4782 65.4847C15.2951 63.4558 12.5922 60.7618 10.5566 57.5892L13.4516 55.9162C13.5797 55.8425 13.6919 55.7445 13.7819 55.6276C13.872 55.5108 13.938 55.3774 13.9763 55.2351C14.0146 55.0928 14.0244 54.9443 14.0052 54.7983C13.9859 54.6522 13.938 54.5113 13.8641 54.3837C13.7903 54.2561 13.6919 54.1442 13.5747 54.0545C13.4574 53.9648 13.3236 53.8989 13.1808 53.8607C13.038 53.8226 12.8891 53.8128 12.7425 53.832C12.596 53.8512 12.4546 53.8989 12.3266 53.9725L9.42405 55.6411C7.67381 52.301 6.6838 48.6174 6.52449 44.8525H9.87406C10.1724 44.8525 10.4586 44.7344 10.6696 44.5241C10.8806 44.3138 10.9991 44.0286 10.9991 43.7312C10.9991 43.4338 10.8806 43.1486 10.6696 42.9383C10.4586 42.728 10.1724 42.6099 9.87406 42.6099H6.52449C6.68307 38.8449 7.67312 35.1612 9.42405 31.8214L12.3266 33.4899C12.5852 33.6386 12.8925 33.6788 13.1808 33.6017C13.4691 33.5246 13.7149 33.3365 13.8641 33.0787C14.0133 32.821 14.0537 32.5148 13.9763 32.2274C13.899 31.94 13.7102 31.695 13.4516 31.5463L10.5551 29.8808C12.5909 26.7058 15.2943 24.0093 18.4782 21.9777L20.1493 24.8647C20.2231 24.9924 20.3215 25.1042 20.4387 25.194C20.556 25.2837 20.6898 25.3495 20.8326 25.3877C20.9754 25.4259 21.1243 25.4357 21.2708 25.4165C21.4174 25.3973 21.5587 25.3495 21.6868 25.2759C21.8148 25.2023 21.9271 25.1042 22.0171 24.9874C22.1071 24.8705 22.1732 24.7371 22.2115 24.5948C22.2498 24.4525 22.2596 24.3041 22.2403 24.158C22.2211 24.0119 22.1732 23.8711 22.0993 23.7434L20.4268 20.8549C23.7772 19.108 27.4732 18.1197 31.251 17.9604V21.305C31.251 21.6023 31.3695 21.8876 31.5805 22.0978C31.7915 22.3081 32.0776 22.4263 32.376 22.4263C32.6744 22.4263 32.9605 22.3081 33.1715 22.0978C33.3825 21.8876 33.501 21.6023 33.501 21.305V17.9664C37.2788 18.1259 40.9747 19.1142 44.3252 20.8609L42.6497 23.7494C42.5758 23.877 42.5279 24.0179 42.5086 24.164C42.4894 24.3101 42.4992 24.4585 42.5375 24.6008C42.5758 24.7431 42.6419 24.8765 42.7319 24.9933C42.8219 25.1102 42.9341 25.2083 43.0622 25.2819C43.1902 25.3555 43.3316 25.4033 43.4781 25.4225C43.6247 25.4416 43.7736 25.4319 43.9164 25.3937C44.0592 25.3555 44.193 25.2897 44.3102 25.1999C44.4275 25.1102 44.5258 24.9984 44.5997 24.8707L46.2708 21.9777C49.4537 24.008 52.1569 26.7023 54.1939 29.8748L51.2973 31.5463C51.0388 31.695 50.85 31.94 50.7727 32.2274C50.6953 32.5148 50.7357 32.821 50.8848 33.0787C51.034 33.3365 51.2798 33.5246 51.5682 33.6017C51.8565 33.6788 52.1638 33.6386 52.4224 33.4899L55.3249 31.8214C57.0759 35.1612 58.0659 38.8449 58.2245 42.6099H54.8749C54.5765 42.6099 54.2904 42.728 54.0794 42.9383C53.8684 43.1486 53.7499 43.4338 53.7499 43.7312C53.7499 44.0286 53.8684 44.3138 54.0794 44.5241C54.2904 44.7344 54.5765 44.8525 54.8749 44.8525ZM37.3756 27.2703C37.0907 27.1819 36.7823 27.2099 36.5182 27.3482C36.254 27.4864 36.0558 27.7235 35.9671 28.0074L32.4645 39.2475H32.3745C31.2831 39.2467 30.2287 39.6413 29.4075 40.3578C28.5863 41.0742 28.0543 42.0637 27.9105 43.142C27.7668 44.2203 28.0211 45.3139 28.6261 46.2192C29.2312 47.1245 30.1457 47.7798 31.1994 48.0632C32.253 48.3465 33.3741 48.2385 34.3539 47.7593C35.3336 47.2801 36.1053 46.4623 36.5252 45.4583C36.945 44.4542 36.9845 43.3323 36.6362 42.3014C36.288 41.2705 35.5757 40.4009 34.632 39.8545L38.1166 28.6742C38.2048 28.3901 38.1763 28.0827 38.0374 27.8195C37.8985 27.5563 37.6605 27.3588 37.3756 27.2703V27.2703ZM32.3745 45.9738C31.9295 45.9738 31.4944 45.8423 31.1244 45.5959C30.7544 45.3495 30.466 44.9992 30.2957 44.5894C30.1254 44.1797 30.0809 43.7287 30.1677 43.2937C30.2545 42.8587 30.4688 42.4591 30.7835 42.1454C31.0981 41.8318 31.4991 41.6182 31.9355 41.5317C32.372 41.4452 32.8244 41.4896 33.2355 41.6593C33.6467 41.829 33.9981 42.1165 34.2453 42.4853C34.4926 42.8541 34.6245 43.2877 34.6245 43.7312C34.6245 44.326 34.3875 44.8964 33.9655 45.317C33.5435 45.7376 32.9712 45.9738 32.3745 45.9738ZM55.5739 20.8684L57.1565 19.2866L58.7615 20.8863C58.9726 21.0959 59.2585 21.2136 59.5565 21.2136C59.8545 21.2136 60.1404 21.0959 60.3515 20.8863L63.5346 17.7138C63.6391 17.6098 63.722 17.4862 63.7785 17.3503C63.8351 17.2143 63.8642 17.0686 63.8642 16.9214C63.8642 16.7742 63.8351 16.6284 63.7785 16.4925C63.722 16.3565 63.6391 16.233 63.5346 16.129L58.7615 11.3761C58.657 11.2719 58.533 11.1892 58.3964 11.1328C58.2599 11.0764 58.1135 11.0474 57.9657 11.0474C57.8179 11.0474 57.6716 11.0764 57.535 11.1328C57.3985 11.1892 57.2744 11.2719 57.17 11.3761L53.9884 14.5472C53.8839 14.6513 53.8009 14.7749 53.7443 14.911C53.6878 15.0471 53.6586 15.193 53.6586 15.3403C53.6586 15.4876 53.6878 15.6335 53.7443 15.7696C53.8009 15.9057 53.8839 16.0293 53.9884 16.1335L55.5649 17.7048L53.9374 19.3285C48.8611 14.8443 42.4982 12.0654 35.7496 11.3851V8.97051H36.8746C37.1729 8.97051 37.4591 8.85237 37.6701 8.64208C37.8811 8.43179 37.9996 8.14658 37.9996 7.84919V1.12131C37.9996 0.823923 37.8811 0.538712 37.6701 0.328425C37.4591 0.118138 37.1729 0 36.8746 0H27.8744C27.576 0 27.2899 0.118138 27.0789 0.328425C26.8679 0.538712 26.7494 0.823923 26.7494 1.12131V7.84919C26.7494 8.14658 26.8679 8.43179 27.0789 8.64208C27.2899 8.85237 27.576 8.97051 27.8744 8.97051H28.9994V11.3851C22.2944 12.0608 15.969 14.8083 10.9076 19.2432L9.27405 17.6181L10.8521 16.0452C11.0625 15.8346 11.1806 15.5494 11.1806 15.2521C11.1806 14.9548 11.0625 14.6697 10.8521 14.459L7.67202 11.2879C7.56767 11.1837 7.44374 11.1011 7.30732 11.0447C7.17091 10.9884 7.02468 10.9593 6.877 10.9593C6.72932 10.9593 6.5831 10.9884 6.44668 11.0447C6.31026 11.1011 6.18634 11.1837 6.08199 11.2879L1.3089 16.0452C1.20435 16.1494 1.12142 16.273 1.06484 16.4091C1.00825 16.5452 0.97913 16.6911 0.97913 16.8384C0.97913 16.9857 1.00825 17.1316 1.06484 17.2677C1.12142 17.4038 1.20435 17.5274 1.3089 17.6315L4.49046 20.8026C4.59493 20.9068 4.71899 20.9895 4.85553 21.0459C4.99207 21.1023 5.13842 21.1313 5.28622 21.1313C5.43402 21.1313 5.58037 21.1023 5.71692 21.0459C5.85346 20.9895 5.97751 20.9068 6.08199 20.8026L7.68552 19.2044L9.26505 20.7817C3.27111 26.9094 -0.0576118 35.1451 0.000754797 43.703C0.0591214 52.2608 3.49987 60.4507 9.57683 66.4966C15.6538 72.5425 23.877 75.957 32.4632 75.9996C41.0495 76.0422 49.3064 72.7095 55.4434 66.7241C61.5397 60.6488 64.9754 52.4154 64.9999 43.8231C65.0243 35.2307 61.6355 26.9781 55.5739 20.8684V20.8684ZM57.965 13.7548L61.148 16.9259L59.5565 18.5121L56.3749 15.3396L57.965 13.7548ZM5.28547 18.4239L3.69544 16.8391L6.874 13.6666L8.46853 15.2499L5.28547 18.4239ZM28.9994 2.24263H35.7496V6.72788H28.9994V2.24263ZM33.4995 8.97051V11.2131H31.2495V8.97051H33.4995ZM32.3745 74.0067C15.6252 74.0067 1.99891 60.4253 1.99891 43.7312C1.99891 27.061 15.5877 13.4931 32.3055 13.4558H32.4435C49.1613 13.4931 62.7441 27.061 62.7441 43.7312C62.7501 60.4253 49.1238 74.0067 32.3745 74.0067Z" fill="#66BFBF"/>
</svg>
